<mxfile host="app.diagrams.net" modified="2023-08-23T15:58:40.515Z" agent="Mozilla/5.0 (Windows NT 10.0; Win64; x64) AppleWebKit/537.36 (KHTML, like Gecko) Chrome/116.0.0.0 Safari/537.36" etag="x2o5en5blya13A-MOsHx" version="21.6.9" type="device">
  <diagram name="Page-1" id="58cdce13-f638-feb5-8d6f-7d28b1aa9fa0">
    <mxGraphModel dx="1354" dy="674" grid="1" gridSize="10" guides="1" tooltips="1" connect="1" arrows="1" fold="1" page="1" pageScale="1" pageWidth="1100" pageHeight="850" background="none" math="0" shadow="0">
      <root>
        <mxCell id="0" />
        <mxCell id="1" parent="0" />
        <mxCell id="382b91b5511bd0f7-1" value="" style="ellipse;html=1;shape=startState;fillColor=#000000;strokeColor=#ff0000;rounded=1;shadow=0;comic=0;labelBackgroundColor=none;fontFamily=Verdana;fontSize=12;fontColor=#000000;align=center;direction=south;" parent="1" vertex="1">
          <mxGeometry x="60" y="135" width="30" height="30" as="geometry" />
        </mxCell>
        <mxCell id="aSF7gAb59MAWRp6hlhSJ-16" value="" style="edgeStyle=orthogonalEdgeStyle;rounded=0;orthogonalLoop=1;jettySize=auto;html=1;" edge="1" parent="1" source="382b91b5511bd0f7-6" target="aSF7gAb59MAWRp6hlhSJ-15">
          <mxGeometry relative="1" as="geometry" />
        </mxCell>
        <mxCell id="382b91b5511bd0f7-6" value="Utilisateur entre sur la page d&#39;acceuil" style="rounded=1;whiteSpace=wrap;html=1;arcSize=24;fillColor=#ffffc0;strokeColor=#ff0000;shadow=0;comic=0;labelBackgroundColor=none;fontFamily=Verdana;fontSize=12;fontColor=#000000;align=center;" parent="1" vertex="1">
          <mxGeometry x="240" y="120" width="120" height="60" as="geometry" />
        </mxCell>
        <mxCell id="aSF7gAb59MAWRp6hlhSJ-24" value="" style="edgeStyle=orthogonalEdgeStyle;rounded=0;orthogonalLoop=1;jettySize=auto;html=1;" edge="1" parent="1" source="382b91b5511bd0f7-7" target="aSF7gAb59MAWRp6hlhSJ-22">
          <mxGeometry relative="1" as="geometry">
            <Array as="points">
              <mxPoint x="650" y="80" />
              <mxPoint x="650" y="130" />
            </Array>
          </mxGeometry>
        </mxCell>
        <mxCell id="382b91b5511bd0f7-7" value="Utilisateur Navigue&amp;nbsp;&lt;br&gt;dans le catalogue" style="rounded=1;whiteSpace=wrap;html=1;arcSize=24;fillColor=#ffffc0;strokeColor=#ff0000;shadow=0;comic=0;labelBackgroundColor=none;fontFamily=Verdana;fontSize=12;fontColor=#000000;align=center;" parent="1" vertex="1">
          <mxGeometry x="500" y="50" width="120" height="60" as="geometry" />
        </mxCell>
        <mxCell id="2a3bc250acf0617d-7" value="Systeme" style="swimlane;whiteSpace=wrap;html=1;rounded=1;shadow=0;comic=0;labelBackgroundColor=none;strokeWidth=1;fontFamily=Verdana;fontSize=12;align=center;" parent="1" vertex="1">
          <mxGeometry x="130" y="10" width="930" height="1820" as="geometry" />
        </mxCell>
        <mxCell id="2a3bc250acf0617d-9" style="edgeStyle=orthogonalEdgeStyle;html=1;labelBackgroundColor=none;endArrow=open;endSize=8;strokeColor=#ff0000;fontFamily=Verdana;fontSize=12;align=left;" parent="1" source="382b91b5511bd0f7-1" target="382b91b5511bd0f7-6" edge="1">
          <mxGeometry relative="1" as="geometry" />
        </mxCell>
        <mxCell id="aSF7gAb59MAWRp6hlhSJ-23" value="" style="edgeStyle=orthogonalEdgeStyle;rounded=0;orthogonalLoop=1;jettySize=auto;html=1;" edge="1" parent="1" source="aSF7gAb59MAWRp6hlhSJ-3" target="aSF7gAb59MAWRp6hlhSJ-22">
          <mxGeometry relative="1" as="geometry">
            <Array as="points">
              <mxPoint x="650" y="220" />
              <mxPoint x="650" y="170" />
            </Array>
          </mxGeometry>
        </mxCell>
        <mxCell id="aSF7gAb59MAWRp6hlhSJ-3" value="Appliquer des Filtres de Catégories&lt;br&gt;si nécéssaire" style="rounded=1;whiteSpace=wrap;html=1;arcSize=24;fillColor=#ffffc0;strokeColor=#ff0000;shadow=0;comic=0;labelBackgroundColor=none;fontFamily=Verdana;fontSize=12;fontColor=#000000;align=center;" vertex="1" parent="1">
          <mxGeometry x="500" y="190" width="120" height="60" as="geometry" />
        </mxCell>
        <mxCell id="aSF7gAb59MAWRp6hlhSJ-10" value="" style="edgeStyle=orthogonalEdgeStyle;rounded=0;orthogonalLoop=1;jettySize=auto;html=1;" edge="1" parent="1" source="aSF7gAb59MAWRp6hlhSJ-5" target="aSF7gAb59MAWRp6hlhSJ-9">
          <mxGeometry relative="1" as="geometry" />
        </mxCell>
        <mxCell id="aSF7gAb59MAWRp6hlhSJ-5" value="L&#39;utilisateur sélectionne un produit spécifique pour afficher ses détails." style="rounded=1;whiteSpace=wrap;html=1;arcSize=24;fillColor=#ffffc0;strokeColor=#ff0000;shadow=0;comic=0;labelBackgroundColor=none;fontFamily=Verdana;fontSize=12;fontColor=#000000;align=center;" vertex="1" parent="1">
          <mxGeometry x="770" y="105" width="130" height="90" as="geometry" />
        </mxCell>
        <mxCell id="aSF7gAb59MAWRp6hlhSJ-12" value="" style="edgeStyle=orthogonalEdgeStyle;rounded=0;orthogonalLoop=1;jettySize=auto;html=1;" edge="1" parent="1" source="aSF7gAb59MAWRp6hlhSJ-9" target="aSF7gAb59MAWRp6hlhSJ-11">
          <mxGeometry relative="1" as="geometry" />
        </mxCell>
        <mxCell id="aSF7gAb59MAWRp6hlhSJ-9" value="L&#39;utilisateur peut ajouter le produit à son panier en spécifiant la quantité désirée." style="rounded=1;whiteSpace=wrap;html=1;arcSize=24;fillColor=#ffffc0;strokeColor=#ff0000;shadow=0;comic=0;labelBackgroundColor=none;fontFamily=Verdana;fontSize=12;fontColor=#000000;align=center;" vertex="1" parent="1">
          <mxGeometry x="770" y="365" width="130" height="90" as="geometry" />
        </mxCell>
        <mxCell id="aSF7gAb59MAWRp6hlhSJ-14" value="" style="edgeStyle=orthogonalEdgeStyle;rounded=0;orthogonalLoop=1;jettySize=auto;html=1;" edge="1" parent="1" source="aSF7gAb59MAWRp6hlhSJ-11" target="aSF7gAb59MAWRp6hlhSJ-13">
          <mxGeometry relative="1" as="geometry" />
        </mxCell>
        <mxCell id="aSF7gAb59MAWRp6hlhSJ-11" value="L&#39;utilisateur peut visualiser le contenu de son panier et effectuer des modifications (ajouter, supprimer, ajuster la quantité)." style="rounded=1;whiteSpace=wrap;html=1;arcSize=24;fillColor=#ffffc0;strokeColor=#ff0000;shadow=0;comic=0;labelBackgroundColor=none;fontFamily=Verdana;fontSize=12;fontColor=#000000;align=center;" vertex="1" parent="1">
          <mxGeometry x="500" y="340" width="140" height="140" as="geometry" />
        </mxCell>
        <mxCell id="aSF7gAb59MAWRp6hlhSJ-28" value="" style="edgeStyle=orthogonalEdgeStyle;rounded=0;orthogonalLoop=1;jettySize=auto;html=1;entryX=0.5;entryY=0;entryDx=0;entryDy=0;" edge="1" parent="1" source="aSF7gAb59MAWRp6hlhSJ-13" target="aSF7gAb59MAWRp6hlhSJ-29">
          <mxGeometry relative="1" as="geometry">
            <mxPoint x="310" y="530" as="targetPoint" />
          </mxGeometry>
        </mxCell>
        <mxCell id="aSF7gAb59MAWRp6hlhSJ-13" value="L&#39;utilisateur décide de passer à la caisse pour finaliser son achat." style="rounded=1;whiteSpace=wrap;html=1;arcSize=24;fillColor=#ffffc0;strokeColor=#ff0000;shadow=0;comic=0;labelBackgroundColor=none;fontFamily=Verdana;fontSize=12;fontColor=#000000;align=center;" vertex="1" parent="1">
          <mxGeometry x="240" y="370" width="140" height="80" as="geometry" />
        </mxCell>
        <mxCell id="aSF7gAb59MAWRp6hlhSJ-17" value="" style="edgeStyle=orthogonalEdgeStyle;rounded=0;orthogonalLoop=1;jettySize=auto;html=1;" edge="1" parent="1" source="aSF7gAb59MAWRp6hlhSJ-15" target="aSF7gAb59MAWRp6hlhSJ-3">
          <mxGeometry relative="1" as="geometry">
            <Array as="points">
              <mxPoint x="463" y="170" />
              <mxPoint x="463" y="220" />
            </Array>
          </mxGeometry>
        </mxCell>
        <mxCell id="aSF7gAb59MAWRp6hlhSJ-19" value="" style="edgeStyle=orthogonalEdgeStyle;rounded=0;orthogonalLoop=1;jettySize=auto;html=1;entryX=0;entryY=0.5;entryDx=0;entryDy=0;" edge="1" parent="1" source="aSF7gAb59MAWRp6hlhSJ-15" target="382b91b5511bd0f7-7">
          <mxGeometry relative="1" as="geometry">
            <Array as="points">
              <mxPoint x="463" y="130" />
              <mxPoint x="463" y="80" />
            </Array>
          </mxGeometry>
        </mxCell>
        <mxCell id="aSF7gAb59MAWRp6hlhSJ-15" value="" style="html=1;points=[];perimeter=orthogonalPerimeter;fillColor=strokeColor;" vertex="1" parent="1">
          <mxGeometry x="420" y="110" width="5" height="80" as="geometry" />
        </mxCell>
        <mxCell id="aSF7gAb59MAWRp6hlhSJ-25" value="" style="edgeStyle=orthogonalEdgeStyle;rounded=0;orthogonalLoop=1;jettySize=auto;html=1;" edge="1" parent="1" source="aSF7gAb59MAWRp6hlhSJ-22" target="aSF7gAb59MAWRp6hlhSJ-5">
          <mxGeometry relative="1" as="geometry" />
        </mxCell>
        <mxCell id="aSF7gAb59MAWRp6hlhSJ-22" value="" style="html=1;points=[];perimeter=orthogonalPerimeter;fillColor=strokeColor;" vertex="1" parent="1">
          <mxGeometry x="690" y="110" width="5" height="80" as="geometry" />
        </mxCell>
        <mxCell id="aSF7gAb59MAWRp6hlhSJ-29" value="Le système demande à l&#39;utilisateur de se connecter à son compte ou de créer un compte s&#39;il n&#39;en a pas." style="rhombus;whiteSpace=wrap;html=1;fontColor=#000000;fillColor=#ffffc0;strokeColor=#ff0000;" vertex="1" parent="1">
          <mxGeometry x="172.5" y="520" width="275" height="200" as="geometry" />
        </mxCell>
        <mxCell id="aSF7gAb59MAWRp6hlhSJ-30" value="no" style="edgeStyle=orthogonalEdgeStyle;html=1;align=left;verticalAlign=bottom;endArrow=open;endSize=8;strokeColor=#ff0000;rounded=0;entryX=0;entryY=0.5;entryDx=0;entryDy=0;" edge="1" source="aSF7gAb59MAWRp6hlhSJ-29" parent="1" target="aSF7gAb59MAWRp6hlhSJ-32">
          <mxGeometry x="-1" relative="1" as="geometry">
            <mxPoint x="650" y="605" as="targetPoint" />
            <Array as="points" />
          </mxGeometry>
        </mxCell>
        <mxCell id="aSF7gAb59MAWRp6hlhSJ-31" value="yes" style="edgeStyle=orthogonalEdgeStyle;html=1;align=left;verticalAlign=top;endArrow=open;endSize=8;strokeColor=#ff0000;rounded=0;exitX=0.5;exitY=1;exitDx=0;exitDy=0;entryX=0.5;entryY=0;entryDx=0;entryDy=0;" edge="1" source="aSF7gAb59MAWRp6hlhSJ-29" parent="1" target="aSF7gAb59MAWRp6hlhSJ-36">
          <mxGeometry x="-1" relative="1" as="geometry">
            <mxPoint x="310" y="820" as="targetPoint" />
            <mxPoint x="309.9988235294117" y="709.995944272446" as="sourcePoint" />
            <Array as="points" />
          </mxGeometry>
        </mxCell>
        <mxCell id="aSF7gAb59MAWRp6hlhSJ-40" value="" style="edgeStyle=orthogonalEdgeStyle;rounded=0;orthogonalLoop=1;jettySize=auto;html=1;entryX=-0.176;entryY=0.335;entryDx=0;entryDy=0;entryPerimeter=0;" edge="1" parent="1" source="aSF7gAb59MAWRp6hlhSJ-32" target="aSF7gAb59MAWRp6hlhSJ-38">
          <mxGeometry relative="1" as="geometry">
            <mxPoint x="780" y="620" as="targetPoint" />
          </mxGeometry>
        </mxCell>
        <mxCell id="aSF7gAb59MAWRp6hlhSJ-32" value="S&#39;inscrit en fournissant les informations nécessaires" style="rounded=1;whiteSpace=wrap;html=1;arcSize=40;fontColor=#000000;fillColor=#ffffc0;strokeColor=#ff0000;" vertex="1" parent="1">
          <mxGeometry x="550" y="580" width="150" height="80" as="geometry" />
        </mxCell>
        <mxCell id="aSF7gAb59MAWRp6hlhSJ-42" value="" style="edgeStyle=orthogonalEdgeStyle;rounded=0;orthogonalLoop=1;jettySize=auto;html=1;entryX=-0.176;entryY=0.702;entryDx=0;entryDy=0;entryPerimeter=0;" edge="1" parent="1" source="aSF7gAb59MAWRp6hlhSJ-36" target="aSF7gAb59MAWRp6hlhSJ-38">
          <mxGeometry relative="1" as="geometry">
            <mxPoint x="465" y="830" as="targetPoint" />
          </mxGeometry>
        </mxCell>
        <mxCell id="aSF7gAb59MAWRp6hlhSJ-36" value="L&#39;utilisateur fournit ses informations de connexion" style="rounded=1;whiteSpace=wrap;html=1;arcSize=40;fontColor=#000000;fillColor=#ffffc0;strokeColor=#ff0000;" vertex="1" parent="1">
          <mxGeometry x="235" y="790" width="150" height="80" as="geometry" />
        </mxCell>
        <mxCell id="aSF7gAb59MAWRp6hlhSJ-47" value="" style="edgeStyle=orthogonalEdgeStyle;rounded=0;orthogonalLoop=1;jettySize=auto;html=1;" edge="1" parent="1" source="aSF7gAb59MAWRp6hlhSJ-38" target="aSF7gAb59MAWRp6hlhSJ-45">
          <mxGeometry relative="1" as="geometry" />
        </mxCell>
        <mxCell id="aSF7gAb59MAWRp6hlhSJ-38" value="" style="html=1;points=[];perimeter=orthogonalPerimeter;fillColor=strokeColor;" vertex="1" parent="1">
          <mxGeometry x="750" y="680" width="5" height="80" as="geometry" />
        </mxCell>
        <mxCell id="aSF7gAb59MAWRp6hlhSJ-45" value="L&#39;utilisateur fournit les informations de livraison, y compris l&#39;adresse de livraison et les détails de facturation" style="rounded=1;whiteSpace=wrap;html=1;arcSize=40;fontColor=#000000;fillColor=#ffffc0;strokeColor=#ff0000;" vertex="1" parent="1">
          <mxGeometry x="830" y="675" width="200" height="90" as="geometry" />
        </mxCell>
        <mxCell id="aSF7gAb59MAWRp6hlhSJ-46" value="" style="edgeStyle=orthogonalEdgeStyle;html=1;verticalAlign=bottom;endArrow=open;endSize=8;strokeColor=#ff0000;rounded=0;entryX=0.5;entryY=0;entryDx=0;entryDy=0;" edge="1" source="aSF7gAb59MAWRp6hlhSJ-45" parent="1" target="aSF7gAb59MAWRp6hlhSJ-48">
          <mxGeometry relative="1" as="geometry">
            <mxPoint x="930" y="820" as="targetPoint" />
          </mxGeometry>
        </mxCell>
        <mxCell id="aSF7gAb59MAWRp6hlhSJ-56" value="" style="edgeStyle=orthogonalEdgeStyle;rounded=0;orthogonalLoop=1;jettySize=auto;html=1;" edge="1" parent="1" source="aSF7gAb59MAWRp6hlhSJ-48" target="aSF7gAb59MAWRp6hlhSJ-52">
          <mxGeometry relative="1" as="geometry" />
        </mxCell>
        <mxCell id="aSF7gAb59MAWRp6hlhSJ-48" value="L&#39;utilisateur sélectionne la méthode de paiement souhaitée (carte de crédit, PayPal, etc.)." style="rounded=1;whiteSpace=wrap;html=1;arcSize=40;fontColor=#000000;fillColor=#ffffc0;strokeColor=#ff0000;" vertex="1" parent="1">
          <mxGeometry x="855" y="850" width="150" height="90" as="geometry" />
        </mxCell>
        <mxCell id="aSF7gAb59MAWRp6hlhSJ-52" value="Le système vérifie les informations de paiement et de livraison pour s&#39;assurer qu&#39;elles sont valides" style="rhombus;whiteSpace=wrap;html=1;fontColor=#000000;fillColor=#ffffc0;strokeColor=#ff0000;" vertex="1" parent="1">
          <mxGeometry x="820" y="1010" width="220" height="160" as="geometry" />
        </mxCell>
        <mxCell id="aSF7gAb59MAWRp6hlhSJ-53" value="no" style="edgeStyle=orthogonalEdgeStyle;html=1;align=left;verticalAlign=bottom;endArrow=open;endSize=8;strokeColor=#ff0000;rounded=0;exitX=0;exitY=0.5;exitDx=0;exitDy=0;entryX=1;entryY=0.5;entryDx=0;entryDy=0;" edge="1" source="aSF7gAb59MAWRp6hlhSJ-52" parent="1" target="aSF7gAb59MAWRp6hlhSJ-59">
          <mxGeometry x="-0.559" relative="1" as="geometry">
            <mxPoint x="670" y="1090" as="targetPoint" />
            <Array as="points" />
            <mxPoint as="offset" />
          </mxGeometry>
        </mxCell>
        <mxCell id="aSF7gAb59MAWRp6hlhSJ-54" value="yes" style="edgeStyle=orthogonalEdgeStyle;html=1;align=left;verticalAlign=top;endArrow=open;endSize=8;strokeColor=#ff0000;rounded=0;entryX=0.5;entryY=0;entryDx=0;entryDy=0;" edge="1" source="aSF7gAb59MAWRp6hlhSJ-52" parent="1" target="aSF7gAb59MAWRp6hlhSJ-57">
          <mxGeometry x="-1" relative="1" as="geometry">
            <mxPoint x="930" y="1250" as="targetPoint" />
            <Array as="points" />
          </mxGeometry>
        </mxCell>
        <mxCell id="aSF7gAb59MAWRp6hlhSJ-64" value="" style="edgeStyle=orthogonalEdgeStyle;rounded=0;orthogonalLoop=1;jettySize=auto;html=1;" edge="1" parent="1" source="aSF7gAb59MAWRp6hlhSJ-57" target="aSF7gAb59MAWRp6hlhSJ-63">
          <mxGeometry relative="1" as="geometry" />
        </mxCell>
        <mxCell id="aSF7gAb59MAWRp6hlhSJ-57" value="le système enregistre la commande et débite le montant correspondant sur la méthode de paiement choisie." style="rounded=1;whiteSpace=wrap;html=1;arcSize=40;fontColor=#000000;fillColor=#ffffc0;strokeColor=#ff0000;" vertex="1" parent="1">
          <mxGeometry x="855" y="1260" width="150" height="120" as="geometry" />
        </mxCell>
        <mxCell id="aSF7gAb59MAWRp6hlhSJ-59" value="Message d&#39;erreur" style="rounded=1;whiteSpace=wrap;html=1;arcSize=40;fontColor=#000000;fillColor=#ffffc0;strokeColor=#ff0000;" vertex="1" parent="1">
          <mxGeometry x="610" y="1070" width="120" height="40" as="geometry" />
        </mxCell>
        <mxCell id="aSF7gAb59MAWRp6hlhSJ-68" value="" style="edgeStyle=orthogonalEdgeStyle;rounded=0;orthogonalLoop=1;jettySize=auto;html=1;" edge="1" parent="1" source="aSF7gAb59MAWRp6hlhSJ-63" target="aSF7gAb59MAWRp6hlhSJ-65">
          <mxGeometry relative="1" as="geometry" />
        </mxCell>
        <mxCell id="aSF7gAb59MAWRp6hlhSJ-63" value="Le système envoie un courriel de confirmation de la commande à l&#39;utilisateur, avec les&amp;nbsp;détails de la commande et un récapitulatif des produits achetés." style="rounded=1;whiteSpace=wrap;html=1;arcSize=40;fontColor=#000000;fillColor=#ffffc0;strokeColor=#ff0000;" vertex="1" parent="1">
          <mxGeometry x="620" y="1257.5" width="160" height="125" as="geometry" />
        </mxCell>
        <mxCell id="aSF7gAb59MAWRp6hlhSJ-65" value="Le système vérifie si le montant total de la commande est supérieur à 100 $." style="rhombus;whiteSpace=wrap;html=1;fontColor=#000000;fillColor=#ffffc0;strokeColor=#ff0000;" vertex="1" parent="1">
          <mxGeometry x="340" y="1240" width="220" height="160" as="geometry" />
        </mxCell>
        <mxCell id="aSF7gAb59MAWRp6hlhSJ-66" value="no" style="edgeStyle=orthogonalEdgeStyle;html=1;align=left;verticalAlign=bottom;endArrow=open;endSize=8;strokeColor=#ff0000;rounded=0;exitX=0;exitY=0.5;exitDx=0;exitDy=0;entryX=0.5;entryY=1;entryDx=0;entryDy=0;" edge="1" parent="1" source="aSF7gAb59MAWRp6hlhSJ-65" target="aSF7gAb59MAWRp6hlhSJ-71">
          <mxGeometry x="-0.9444" relative="1" as="geometry">
            <mxPoint x="250" y="1320" as="targetPoint" />
            <Array as="points">
              <mxPoint x="230" y="1320" />
              <mxPoint x="230" y="1710" />
              <mxPoint x="710" y="1710" />
            </Array>
            <mxPoint as="offset" />
          </mxGeometry>
        </mxCell>
        <mxCell id="aSF7gAb59MAWRp6hlhSJ-67" value="yes" style="edgeStyle=orthogonalEdgeStyle;html=1;align=left;verticalAlign=top;endArrow=open;endSize=8;strokeColor=#ff0000;rounded=0;entryX=0.5;entryY=0;entryDx=0;entryDy=0;" edge="1" parent="1" source="aSF7gAb59MAWRp6hlhSJ-65" target="aSF7gAb59MAWRp6hlhSJ-69">
          <mxGeometry x="-1" relative="1" as="geometry">
            <mxPoint x="450" y="1490" as="targetPoint" />
            <Array as="points" />
          </mxGeometry>
        </mxCell>
        <mxCell id="aSF7gAb59MAWRp6hlhSJ-72" value="" style="edgeStyle=orthogonalEdgeStyle;rounded=0;orthogonalLoop=1;jettySize=auto;html=1;" edge="1" parent="1" source="aSF7gAb59MAWRp6hlhSJ-69" target="aSF7gAb59MAWRp6hlhSJ-71">
          <mxGeometry relative="1" as="geometry" />
        </mxCell>
        <mxCell id="aSF7gAb59MAWRp6hlhSJ-69" value="Le système génère automatiquement un coupon de livraison gratuite et l&#39;envoie à l&#39;utilisateur par courriel." style="rounded=1;whiteSpace=wrap;html=1;arcSize=40;fontColor=#000000;fillColor=#ffffc0;strokeColor=#ff0000;" vertex="1" parent="1">
          <mxGeometry x="360" y="1470" width="180" height="140" as="geometry" />
        </mxCell>
        <mxCell id="aSF7gAb59MAWRp6hlhSJ-74" value="" style="edgeStyle=orthogonalEdgeStyle;rounded=0;orthogonalLoop=1;jettySize=auto;html=1;" edge="1" parent="1" source="aSF7gAb59MAWRp6hlhSJ-71" target="aSF7gAb59MAWRp6hlhSJ-73">
          <mxGeometry relative="1" as="geometry" />
        </mxCell>
        <mxCell id="aSF7gAb59MAWRp6hlhSJ-71" value="La transaction est terminée, et l&#39;utilisateur reçoit un message sur le site confirmant que la commande a été passée avec succès." style="rounded=1;whiteSpace=wrap;html=1;arcSize=40;fontColor=#000000;fillColor=#ffffc0;strokeColor=#ff0000;" vertex="1" parent="1">
          <mxGeometry x="620" y="1470" width="180" height="140" as="geometry" />
        </mxCell>
        <mxCell id="aSF7gAb59MAWRp6hlhSJ-73" value="" style="ellipse;html=1;shape=endState;fillColor=#000000;strokeColor=#ff0000;" vertex="1" parent="1">
          <mxGeometry x="880" y="1525" width="30" height="30" as="geometry" />
        </mxCell>
      </root>
    </mxGraphModel>
  </diagram>
</mxfile>
